<svg width="89" height="100" viewBox="0 0 89 100" fill="none" xmlns="http://www.w3.org/2000/svg">
<g clip-path="url(#clip0_3340_74)">
<path d="M88.7392 29.3237C88.7385 27.6467 88.3799 26.1647 87.6545 24.8928C86.942 23.6421 85.875 22.5939 84.4438 21.7651C72.6295 14.9529 60.8038 8.16159 48.9934 1.34249C45.8094 -0.495703 42.7222 -0.428689 39.5618 1.43589C34.8594 4.20916 11.316 17.6977 4.30035 21.7612C1.41111 23.4338 0.00520833 25.9935 0.00451389 29.3206C0 43.0203 0.00451389 56.7196 0 70.4196C0 72.0599 0.344097 73.513 1.0375 74.7658C1.75035 76.0543 2.83229 77.1314 4.29653 77.9789C11.3125 82.0425 34.859 95.53 39.5604 98.304C42.7222 100.17 45.8094 100.236 48.9944 98.3973C60.8052 91.5779 72.6316 84.7869 84.4476 77.9748C85.9118 77.1276 86.9938 76.0498 87.7066 74.7623C88.399 73.5095 88.7438 72.0564 88.7438 70.4158C88.7438 70.4158 88.7438 43.0237 88.7392 29.3237Z" fill="#4A4A4C"/>
<path d="M44.5077 49.7363L1.0376 74.7655C1.75044 76.054 2.83239 77.1311 4.29663 77.9787C11.3126 82.0422 34.8591 95.5297 39.5605 98.3037C42.7223 100.169 45.8095 100.236 48.9945 98.3971C60.8053 91.5776 72.6317 84.7867 84.4477 77.9745C85.9119 77.1273 86.9938 76.0495 87.7067 74.762L44.5077 49.7363Z" fill="#2C2831"/>
<path d="M88.7394 29.3235C88.7387 27.6464 88.38 26.1645 87.6547 24.8926L44.5078 49.7363L87.7068 74.762C88.3991 73.5092 88.7432 72.0561 88.7439 70.4155C88.7439 70.4155 88.7439 43.0235 88.7394 29.3235Z" fill="#3A3543"/>
<path d="M70.1015 40.3799V45.0582H74.7799V40.3799H77.1191V45.0582H81.7974V47.3974H77.1191V52.0758H81.7974V54.415H77.1191V59.0933H74.7799V54.415H70.1015V59.0933H67.7624V54.415H63.084V52.0758H67.7624V47.3974H63.084V45.0582H67.7624V40.3799H70.1015ZM74.7799 47.3974H70.1015V52.0758H74.7799V47.3974Z" fill="white"/>
<path d="M44.603 16.8838C56.8057 16.8838 67.4596 23.511 73.1661 33.3616L73.1104 33.2668L58.7533 41.5335C55.9246 36.7441 50.7389 33.512 44.7904 33.4454L44.603 33.4444C35.5316 33.4444 28.1773 40.7983 28.1773 49.8697C28.1773 52.8362 28.9682 55.617 30.3436 58.0188C33.1749 62.9616 38.4974 66.2954 44.603 66.2954C50.7463 66.2954 56.0991 62.9193 58.916 57.9236L58.8476 58.0435L73.1832 66.3484C67.5393 76.1156 57.0313 82.7223 44.9704 82.854L44.603 82.856C32.3618 82.856 21.6776 76.188 15.9855 66.2853C13.2066 61.451 11.6167 55.8463 11.6167 49.8697C11.6167 31.6523 26.3848 16.8838 44.603 16.8838Z" fill="white"/>
</g>
<defs>
<clipPath id="clip0_3340_74">
<rect width="88.8889" height="100" fill="white"/>
</clipPath>
</defs>
</svg>
